<?xml version="1.0" encoding="utf-8"?>
<!-- Generator: Adobe Illustrator 25.2.0, SVG Export Plug-In . SVG Version: 6.00 Build 0)  -->
<svg version="1.1" id="Layer_1" xmlns="http://www.w3.org/2000/svg" xmlns:xlink="http://www.w3.org/1999/xlink" x="0px" y="0px"
	 viewBox="0 0 127.5 45.5" style="enable-background:new 0 0 127.5 45.5;" xml:space="preserve">
<style type="text/css">
	.st0{fill:#51A3FF;}
</style>
<g>
	<path class="st0" d="M120.8,0H6.7C3,0,0,3,0,6.7v32c0,3.7,3,6.7,6.7,6.7h114c3.7,0,6.7-3,6.7-6.7v-32C127.5,3,124.5,0,120.8,0z
		 M6.7,1.5h114c2.9,0,5.2,2.3,5.2,5.2v32c0,2.9-2.3,5.2-5.2,5.2H6.7c-2.9,0-5.2-2.3-5.2-5.2v-32C1.5,3.8,3.8,1.5,6.7,1.5z"/>
	<path class="st0" d="M110,36.2c4.6,0,7.4-2.2,7.4-5.9c0-4-3.6-5.2-6.8-6.2c-2.8-0.9-5.3-1.7-5.3-4.2c0-1.8,1.2-3.6,4.7-3.6
		c2.9,0,4.5,1.9,4.5,3.8v0.5h1.6v-0.5c0-1.4-0.6-2.7-1.6-3.7c-1.1-1.1-2.7-1.7-4.5-1.7c-4.6,0-6.3,2.8-6.3,5.2
		c0,3.6,3.4,4.7,6.4,5.6c3.1,1,5.7,1.9,5.7,4.7c0,3.6-3.2,4.3-5.8,4.3c-3.9,0-6-2.4-6-4.7v-0.5h-1.6v0.5
		C102.5,32.9,105.1,36.2,110,36.2z"/>
	<polygon class="st0" points="12.5,11.6 31.2,37.7 31.2,8.7 29.6,8.7 29.6,32.9 11,6.7 11,35.9 12.5,35.9 	"/>
	<path class="st0" d="M46.5,36.1c5.8,0,10.5-4.7,10.5-10.5S52.3,15,46.5,15s-10.5,4.7-10.5,10.5S40.7,36.1,46.5,36.1z M46.5,34.5
		c-5,0-9-4-9-9s4-9,9-9c5,0,9,4,9,9S51.4,34.5,46.5,34.5z"/>
	<path class="st0" d="M89.2,36.1c4.7,0,8.9-3.2,10.2-7.7l0.1-0.5L98,27.5l-0.1,0.5c-1.1,3.9-4.6,6.6-8.7,6.6c-5,0-9-4-9-9
		c0-0.5,0-1,0.1-1.5h19.4l-0.2-1c-1.1-4.8-5.4-8.1-10.3-8.1c-5.8,0-10.5,4.7-10.5,10.5S83.4,36.1,89.2,36.1z M89.2,16.5
		c3.8,0,7.2,2.4,8.5,5.9H80.8C82.1,18.9,85.5,16.5,89.2,16.5z"/>
	<path class="st0" d="M62.8,29.2c0,4.2,3.4,6.8,6.6,6.8c3.5,0,6.3-2.7,6.3-6v-0.5h-1.6V30c0,2.5-2.1,4.4-4.7,4.4c-3.1,0-5-2.7-5-5.3
		V15.8h9.2v-1.6h-9.2V8.5h-1.6v5.7h-4.7v1.6h4.7V29.2z"/>
</g>
</svg>
